# xmcd
#
# Track frame offsets: 
#        150
#        19748
#        33798
#        54232
#        67657
#        80505
#        95866
#        110576
#        121304
#        133180
#        147523
#        164604
#        179021
#        193175
#        207411
#        223091
#
# Disc length: 3157 seconds
#
# Revision: 1
# Processed by: cddbd v1.5.2PL0 Copyright (c) Steve Scherf et al.
# Submitted via: ExactAudioCopy v0.95a4
#
DISCID=f30c5310
DTITLE=Kris Kristofferson - 16 Biggest Hits
DYEAR=1900
DGENRE=Country
TTITLE0=Me And Bobby McGee
TTITLE1=Jody And The Kid
TTITLE2=Sunday Mornin' Comin' Down
TTITLE3=From The Bottle To The Bottom
TTITLE4=Once More With Feeling
TTITLE5=For The Good Times
TTITLE6=The Taker
TTITLE7=Help Me Make It Through The Night
TTITLE8=Come Sundown
TTITLE9=The Pilgrim - Chapter 33
TTITLE10=Loving Her Was Easier (Than Anything I'll Ever Do Again)
TTITLE11=I'd Rather Be Sorry (with Rita Coolidge)
TTITLE12=Nobody Wins
TTITLE13=Stranger
TTITLE14=Why Me
TTITLE15=Highwayman (with Waylon Jennings, Willie Nelson and Johnny Cash
TTITLE15=)
EXTD=
EXTT0=
EXTT1=
EXTT2=
EXTT3=
EXTT4=
EXTT5=
EXTT6=
EXTT7=
EXTT8=
EXTT9=
EXTT10=
EXTT11=
EXTT12=
EXTT13=
EXTT14=
EXTT15=
PLAYORDER=
